<svg width="32" height="33" viewBox="0 0 32 33" fill="none" xmlns="http://www.w3.org/2000/svg">
<g clip-path="url(#clip0_352_7593)">
<path d="M18.9999 27.5H26.9999C27.9884 27.5 28.8284 27.277 29.5259 26.8885L18.9999 20.6095V27.5ZM31.8299 23.605C31.9439 23.0965 32.0019 22.558 32.0019 21.9995V19.4995H24.9469L31.8279 23.605M0.174937 9.3795C0.0564391 9.91146 -0.00225826 10.455 -6.26911e-05 11V13.5H7.08194L0.174937 9.3795ZM12.9999 5.5H4.99994C4.01844 5.5 3.18394 5.72 2.48944 6.103L12.9999 12.373V5.5ZM2.52144 26.913C3.20944 27.285 4.03294 27.5 4.99994 27.5H12.9999V20.662L2.52144 26.913ZM-6.26911e-05 19.5V22C-6.26911e-05 22.5755 0.0609373 23.13 0.181437 23.6515L7.14094 19.5H-6.26911e-05ZM29.5574 6.1275C28.8544 5.7285 28.0029 5.5 26.9999 5.5H18.9999V12.4255L29.5574 6.1275ZM31.9999 13.5V11C31.9999 10.453 31.9434 9.9255 31.8339 9.4265L25.0059 13.5H31.9999Z" fill="#2E3192"/>
<path d="M25.006 13.5L31.834 9.4265C31.521 7.9945 30.759 6.809 29.5575 6.1275L19 12.4255V5.5H18V14.5H32V13.5H25.006ZM0 18.5V19.5H7.141L0.1815 23.6515C0.512 25.079 1.297 26.251 2.5215 26.913L13 20.662V27.5H14V18.5H0ZM32 18.5H18V27.5H19V20.6095L29.526 26.889C30.7365 26.215 31.508 25.036 31.828 23.606L24.947 19.5H32V18.5ZM13 5.5V12.373L2.4895 6.103C1.2745 6.773 0.498 7.95 0.1745 9.3795L7.082 13.5H0V14.5H14V5.5H13Z" fill="#E6E7E8"/>
<path d="M18 14.5V5.5H14V14.5H0V18.5H14V27.5H18V18.5H32V14.5H18Z" fill="#BE1E2D"/>
<path d="M10.969 13.4998L0.943976 7.51531C0.728476 7.83531 0.555476 8.18731 0.412476 8.56231L8.68598 13.4998H10.9675M31.545 24.5448L23.1385 19.4998H20.8105L30.967 25.6093C31.2025 25.2802 31.3966 24.9233 31.545 24.5468M30.3595 6.69531L18.9845 13.4998L21.294 13.5013L31.1095 7.62481C30.8905 7.22631 30.6595 6.96931 30.3595 6.69531ZM0.906476 25.4373C1.13139 25.7799 1.40206 26.0901 1.71098 26.3593L13.0315 19.4998H10.75L0.906476 25.4373Z" fill="#BE1E2D"/>
</g>
<defs>
<clipPath id="clip0_352_7593">
<rect width="32" height="32" fill="white" transform="translate(0 0.5)"/>
</clipPath>
</defs>
</svg>
