<svg width="25" height="24" viewBox="0 0 25 24" fill="none" xmlns="http://www.w3.org/2000/svg">
<path d="M12.5 2C6.98 2 2.5 6.48 2.5 12C2.5 17.52 6.98 22 12.5 22C18.02 22 22.5 17.52 22.5 12C22.5 6.48 18.02 2 12.5 2ZM13.5 4.07C16.57 4.45 19.07 6.59 20.04 9.43L13.5 5.65V4.07ZM8.5 5.08C9.68 4.39 11.83 4.02 11.5 4.06V11.41L8.5 13.14V5.08ZM5.13 15.1C4.73 14.14 4.5 13.1 4.5 12C4.5 9.98 5.26 8.14 6.5 6.73V14.31L5.13 15.1ZM6.14 16.83L12.5 13.15L15.5 14.88L8.52 18.91C7.59 18.38 6.78 17.68 6.14 16.83ZM12.5 20C11.96 20 11.43 19.94 10.92 19.84L17.5 16.04L18.86 16.82C17.4 18.75 15.1 20 12.5 20ZM13.5 11.42V7.96L20.5 12.01C20.5 13.11 20.27 14.15 19.87 15.1L13.5 11.42Z" fill="white"/>
</svg>
