<svg width="457" height="186" viewBox="0 0 457 186" fill="none" xmlns="http://www.w3.org/2000/svg">
<g clip-path="url(#clip0_221_964)">
<path d="M0 13.33L33.79 87.62L72.51 74.18L66.6 58.08L40.46 62.72L24.5 6.20996L0 13.33Z" fill="#0359A4"/>
<path d="M55.88 46.7399L61.62 3.16992L84.36 3.20992L105.3 62.1499L87.52 68.0799L75.66 20.2599L72.32 45.9499L55.88 46.7399Z" fill="#0359A4"/>
<path d="M113.84 72.1L110.28 14.84L124.9 12.86L151.38 46.45L155.55 0H172.54L168.94 70.73L154.86 73.88L124.11 36.73L129.25 74.29L113.84 72.1Z" fill="#0359A4"/>
<path d="M202.87 68.7C188.78 64.78 182.33 49.24 181.95 37.7C181.89 35.92 181.55 16.08 197.03 7.87997C204.54 3.89997 214.17 3.50997 222.4 7.54997C230.58 11.57 234.28 18.47 235.42 20.83L221.19 25.18C199.35 14.24 189.42 42.21 207.76 51.66C214.24 55.26 222.34 49.16 222.78 43.36H213.69L214.88 33.7L237.8 33.3C239.96 45.31 235.55 57.17 226.45 63.91C225.38 64.7 215.06 72.09 202.89 68.7H202.87Z" fill="#0359A4"/>
<path d="M0 97.0599L20.02 171.26L35.41 168.55L19.52 88.9099L0 97.0599Z" fill="#0359A4"/>
<path d="M43.25 163.06L34.18 98.4699L49.24 96.8899L69.7 118.98L84.45 86.3099L101.5 83.1799L115.95 150.94L97.04 157.98L90.69 112.59L72.8 140.39L53.94 121.85L59.83 163.73L43.25 163.06Z" fill="#0359A4"/>
<path d="M120.35 163.72L133.89 87.95L148.94 89.87L158.48 114.61L174.22 94.48L189.64 95.87L194.73 172.72L175.47 172.58L175.67 117.91L156.62 136.05L144.31 117.91L137.25 170.22L120.35 163.72Z" fill="#0359A4"/>
<path d="M198.13 81.92L201.14 148.37L238.19 142.41L234.52 125.11L214.86 129.48L213.64 112.08L227.98 109.99L227.16 98.82L212.82 100.37L212.38 93.14L235.02 90.26V74.25L198.13 81.92Z" fill="#0359A4"/>
<path d="M250.95 67.93L247.26 153.29L265.61 148.55L264.43 107.33L292.04 139.07L307.85 125.9L271.96 96.56C284.27 97.34 293.97 91.93 296.17 84.46C298.12 77.82 293.51 71.65 293.1 71.11C286.18 62.13 269.27 60.78 250.95 67.95V67.93Z" fill="#0359A4"/>
<path d="M367.79 77.7999C344.93 60.7799 320.23 60.9699 310.82 71.9999C304.81 79.0399 304.16 91.4999 307.95 100.76C314.55 116.91 331.64 116.15 337.28 132.87C337.83 134.49 341.34 145.38 336.39 154.2C328.68 167.96 305.34 167.9 279.95 167.53C264.22 167.3 241.7 165.58 214.82 158.57C213.02 164.71 211.22 170.85 209.42 176.99C253.64 187.17 288.11 186.42 309.83 184.29C330.84 182.23 346.39 178.45 355.2 166.18C359.09 160.76 363.41 151.3 362.33 140.34C361.31 129.95 355.9 122.76 353.68 119.89C341.87 104.6 326.72 105.12 325.16 94.5299C324.57 90.4999 326.21 86.2999 328.87 84.0399C334.46 79.2999 346.43 81.4699 357.92 91.0799C361.88 85.9799 363.83 82.8899 367.79 77.7899V77.7999Z" fill="#0359A4"/>
<path d="M372.62 87.61L376.18 163.79L394.75 158.52L387.38 84.23L372.62 87.61Z" fill="#0359A4"/>
<path d="M405.22 77.56C426.6 61.67 427.3 107.89 414.7 114.45C396.62 120.24 392.8 87.28 405.22 77.56Z" fill="#0359A4"/>
<path d="M402.98 170.03L407.7 125.46L423.11 122.73L443.62 140.28L440.53 107.36L455.89 106.13L456.88 157.83L444.74 160.75L421.33 138.13L421.07 168.49L402.98 170.03Z" fill="#0359A4"/>
</g>
<defs>
<clipPath id="clip0_221_964">
<rect width="456.88" height="185.62" fill="white"/>
</clipPath>
</defs>
</svg>
